<?xml version="1.0" encoding="UTF-8" standalone="no"?>
<!DOCTYPE svg PUBLIC "-//W3C//DTD SVG 1.1//EN"
 "http://www.w3.org/Graphics/SVG/1.1/DTD/svg11.dtd">
<!-- Generated by graphviz version 2.38.0 (20140413.2041)
 -->
<!-- Title: Model Pages: 1 -->
<svg width="615pt" height="968pt"
 viewBox="0.00 0.00 615.00 968.00" xmlns="http://www.w3.org/2000/svg" xmlns:xlink="http://www.w3.org/1999/xlink">
<g id="graph0" class="graph" transform="scale(1 1) rotate(0) translate(4 964)">
<title>Model</title>
<polygon fill="white" stroke="none" points="-4,4 -4,-964 611,-964 611,4 -4,4"/>
<!-- node0 -->
<g id="node1" class="node"><title>node0</title>
<path fill="none" stroke="none" d="M336,-806C336,-806 306,-806 306,-806 300,-806 294,-800 294,-794 294,-794 294,-782 294,-782 294,-776 300,-770 306,-770 306,-770 336,-770 336,-770 342,-770 348,-776 348,-782 348,-782 348,-794 348,-794 348,-800 342,-806 336,-806"/>
<text text-anchor="middle" x="321" y="-785.8" font-family="Times New Roman,serif" font-size="9.00">0</text>
</g>
<!-- node1 -->
<g id="node2" class="node"><title>node1</title>
<path fill="#000000" stroke="black" d="M336,-725C336,-725 306,-725 306,-725 300,-725 294,-719 294,-713 294,-713 294,-701 294,-701 294,-695 300,-689 306,-689 306,-689 336,-689 336,-689 342,-689 348,-695 348,-701 348,-701 348,-713 348,-713 348,-719 342,-725 336,-725"/>
<text text-anchor="middle" x="321" y="-705.1" font-family="Times New Roman,serif" font-size="8.00" fill="#ffffff">Gaussian</text>
</g>
<!-- node0&#45;&gt;node1 -->
<g id="edge1" class="edge"><title>node0&#45;&gt;node1</title>
<path fill="none" stroke="black" d="M321,-769.858C321,-759.713 321,-746.634 321,-735.117"/>
<polygon fill="black" stroke="black" points="324.5,-735.108 321,-725.108 317.5,-735.108 324.5,-735.108"/>
<text text-anchor="middle" x="330.5" y="-745.6" font-family="Times New Roman,serif" font-size="8.00" fill="#d3d3d3">mean</text>
</g>
<!-- node3 -->
<g id="node4" class="node"><title>node3</title>
<path fill="none" stroke="black" d="M307,-652C307,-652 277,-652 277,-652 271,-652 265,-646 265,-640 265,-640 265,-628 265,-628 265,-622 271,-616 277,-616 277,-616 307,-616 307,-616 313,-616 319,-622 319,-628 319,-628 319,-640 319,-640 319,-646 313,-652 307,-652"/>
<text text-anchor="middle" x="292" y="-631.5" font-family="Times New Roman,serif" font-size="10.00" fill="#0000ff">betaC</text>
</g>
<!-- node1&#45;&gt;node3 -->
<g id="edge3" class="edge"><title>node1&#45;&gt;node3</title>
<path fill="none" stroke="black" d="M313.98,-688.813C310.632,-680.615 306.55,-670.623 302.818,-661.485"/>
<polygon fill="black" stroke="black" points="305.977,-659.963 298.955,-652.029 299.497,-662.61 305.977,-659.963"/>
</g>
<!-- node2 -->
<g id="node3" class="node"><title>node2</title>
<path fill="none" stroke="none" d="M408,-806C408,-806 378,-806 378,-806 372,-806 366,-800 366,-794 366,-794 366,-782 366,-782 366,-776 372,-770 378,-770 378,-770 408,-770 408,-770 414,-770 420,-776 420,-782 420,-782 420,-794 420,-794 420,-800 414,-806 408,-806"/>
<text text-anchor="middle" x="393" y="-785.8" font-family="Times New Roman,serif" font-size="9.00">0.0001</text>
</g>
<!-- node2&#45;&gt;node1 -->
<g id="edge2" class="edge"><title>node2&#45;&gt;node1</title>
<path fill="none" stroke="black" d="M377.377,-769.858C367.47,-758.988 354.494,-744.75 343.488,-732.674"/>
<polygon fill="black" stroke="black" points="345.915,-730.142 336.592,-725.108 340.742,-734.857 345.915,-730.142"/>
<text text-anchor="middle" x="376" y="-745.6" font-family="Times New Roman,serif" font-size="8.00" fill="#d3d3d3">precision</text>
</g>
<!-- node4 -->
<g id="node5" class="node"><title>node4</title>
<path fill="#000000" stroke="black" d="M235,-571C235,-571 205,-571 205,-571 199,-571 193,-565 193,-559 193,-559 193,-547 193,-547 193,-541 199,-535 205,-535 205,-535 235,-535 235,-535 241,-535 247,-541 247,-547 247,-547 247,-559 247,-559 247,-565 241,-571 235,-571"/>
<text text-anchor="middle" x="220" y="-551.1" font-family="Times New Roman,serif" font-size="8.00" fill="#ffffff">Gaussian</text>
</g>
<!-- node3&#45;&gt;node4 -->
<g id="edge4" class="edge"><title>node3&#45;&gt;node4</title>
<path fill="none" stroke="black" d="M276.377,-615.858C266.47,-604.988 253.494,-590.75 242.488,-578.674"/>
<polygon fill="black" stroke="black" points="244.915,-576.142 235.592,-571.108 239.742,-580.857 244.915,-576.142"/>
<text text-anchor="middle" x="268.5" y="-591.6" font-family="Times New Roman,serif" font-size="8.00" fill="#d3d3d3">mean</text>
</g>
<!-- node7 -->
<g id="node8" class="node"><title>node7</title>
<path fill="#000000" stroke="black" d="M308,-571C308,-571 278,-571 278,-571 272,-571 266,-565 266,-559 266,-559 266,-547 266,-547 266,-541 272,-535 278,-535 278,-535 308,-535 308,-535 314,-535 320,-541 320,-547 320,-547 320,-559 320,-559 320,-565 314,-571 308,-571"/>
<text text-anchor="middle" x="293" y="-551.1" font-family="Times New Roman,serif" font-size="8.00" fill="#ffffff">Multiply</text>
</g>
<!-- node3&#45;&gt;node7 -->
<g id="edge7" class="edge"><title>node3&#45;&gt;node7</title>
<path fill="none" stroke="black" d="M292.217,-615.858C292.345,-605.713 292.511,-592.634 292.657,-581.117"/>
<polygon fill="black" stroke="black" points="296.156,-581.152 292.783,-571.108 289.157,-581.063 296.156,-581.152"/>
<text text-anchor="middle" x="295" y="-591.6" font-family="Times New Roman,serif" font-size="8.00" fill="#d3d3d3">a</text>
</g>
<!-- node6 -->
<g id="node7" class="node"><title>node6</title>
<path fill="none" stroke="black" d="M235,-498C235,-498 205,-498 205,-498 199,-498 193,-492 193,-486 193,-486 193,-474 193,-474 193,-468 199,-462 205,-462 205,-462 235,-462 235,-462 241,-462 247,-468 247,-474 247,-474 247,-486 247,-486 247,-492 241,-498 235,-498"/>
<text text-anchor="middle" x="220" y="-477.5" font-family="Times New Roman,serif" font-size="10.00" fill="#0000ff">beta[N]</text>
</g>
<!-- node4&#45;&gt;node6 -->
<g id="edge6" class="edge"><title>node4&#45;&gt;node6</title>
<path fill="none" stroke="black" d="M220,-534.813C220,-526.789 220,-517.047 220,-508.069"/>
<polygon fill="black" stroke="black" points="223.5,-508.029 220,-498.029 216.5,-508.029 223.5,-508.029"/>
</g>
<!-- node5 -->
<g id="node6" class="node"><title>node5</title>
<path fill="none" stroke="black" d="M157,-652C157,-652 127,-652 127,-652 121,-652 115,-646 115,-640 115,-640 115,-628 115,-628 115,-622 121,-616 127,-616 127,-616 157,-616 157,-616 163,-616 169,-622 169,-628 169,-628 169,-640 169,-640 169,-646 163,-652 157,-652"/>
<text text-anchor="middle" x="142" y="-631.5" font-family="Times New Roman,serif" font-size="10.00" fill="#0000ff">betaTau</text>
</g>
<!-- node5&#45;&gt;node4 -->
<g id="edge5" class="edge"><title>node5&#45;&gt;node4</title>
<path fill="none" stroke="black" d="M138.314,-615.849C137.397,-607.137 137.865,-596.78 143,-589 145.595,-585.069 164.935,-576.285 183.581,-568.5"/>
<polygon fill="black" stroke="black" points="184.974,-571.712 192.888,-564.669 182.309,-565.239 184.974,-571.712"/>
<text text-anchor="middle" x="159" y="-591.6" font-family="Times New Roman,serif" font-size="8.00" fill="#d3d3d3">precision</text>
</g>
<!-- node18 -->
<g id="node19" class="node"><title>node18</title>
<path fill="#000000" stroke="black" d="M232,-417C232,-417 202,-417 202,-417 196,-417 190,-411 190,-405 190,-405 190,-393 190,-393 190,-387 196,-381 202,-381 202,-381 232,-381 232,-381 238,-381 244,-387 244,-393 244,-393 244,-405 244,-405 244,-411 238,-417 232,-417"/>
<text text-anchor="middle" x="217" y="-397.1" font-family="Times New Roman,serif" font-size="8.00" fill="#ffffff">Multiply</text>
</g>
<!-- node6&#45;&gt;node18 -->
<g id="edge18" class="edge"><title>node6&#45;&gt;node18</title>
<path fill="none" stroke="black" d="M219.349,-461.858C218.964,-451.713 218.467,-438.634 218.03,-427.117"/>
<polygon fill="black" stroke="black" points="221.527,-426.968 217.65,-417.108 214.532,-427.234 221.527,-426.968"/>
<text text-anchor="middle" x="221" y="-437.6" font-family="Times New Roman,serif" font-size="8.00" fill="#d3d3d3">a</text>
</g>
<!-- node9 -->
<g id="node10" class="node"><title>node9</title>
<path fill="none" stroke="black" d="M318.5,-498C318.5,-498 283.5,-498 283.5,-498 277.5,-498 271.5,-492 271.5,-486 271.5,-486 271.5,-474 271.5,-474 271.5,-468 277.5,-462 283.5,-462 283.5,-462 318.5,-462 318.5,-462 324.5,-462 330.5,-468 330.5,-474 330.5,-474 330.5,-486 330.5,-486 330.5,-492 324.5,-498 318.5,-498"/>
<text text-anchor="middle" x="301" y="-477.5" font-family="Times New Roman,serif" font-size="10.00" fill="#0000ff">vdouble36</text>
</g>
<!-- node7&#45;&gt;node9 -->
<g id="edge9" class="edge"><title>node7&#45;&gt;node9</title>
<path fill="none" stroke="black" d="M294.937,-534.813C295.841,-526.789 296.938,-517.047 297.95,-508.069"/>
<polygon fill="black" stroke="black" points="301.439,-508.358 299.081,-498.029 294.484,-507.574 301.439,-508.358"/>
</g>
<!-- node8 -->
<g id="node9" class="node"><title>node8</title>
<path fill="none" stroke="black" d="M234.5,-652C234.5,-652 199.5,-652 199.5,-652 193.5,-652 187.5,-646 187.5,-640 187.5,-640 187.5,-628 187.5,-628 187.5,-622 193.5,-616 199.5,-616 199.5,-616 234.5,-616 234.5,-616 240.5,-616 246.5,-622 246.5,-628 246.5,-628 246.5,-640 246.5,-640 246.5,-646 240.5,-652 234.5,-652"/>
<text text-anchor="middle" x="217" y="-631.5" font-family="Times New Roman,serif" font-size="10.00" fill="#0000ff">vdouble24</text>
</g>
<!-- node8&#45;&gt;node7 -->
<g id="edge8" class="edge"><title>node8&#45;&gt;node7</title>
<path fill="none" stroke="black" d="M226.476,-615.699C231.62,-607.149 238.463,-596.982 246,-589 249.842,-584.932 254.202,-580.996 258.681,-577.323"/>
<polygon fill="black" stroke="black" points="261.036,-579.926 266.784,-571.026 256.74,-574.399 261.036,-579.926"/>
<text text-anchor="middle" x="248" y="-591.6" font-family="Times New Roman,serif" font-size="8.00" fill="#d3d3d3">b</text>
</g>
<!-- node14 -->
<g id="node15" class="node"><title>node14</title>
<path fill="#000000" stroke="black" d="M154,-571C154,-571 124,-571 124,-571 118,-571 112,-565 112,-559 112,-559 112,-547 112,-547 112,-541 118,-535 124,-535 124,-535 154,-535 154,-535 160,-535 166,-541 166,-547 166,-547 166,-559 166,-559 166,-565 160,-571 154,-571"/>
<text text-anchor="middle" x="139" y="-551.1" font-family="Times New Roman,serif" font-size="8.00" fill="#ffffff">Minus</text>
</g>
<!-- node8&#45;&gt;node14 -->
<g id="edge14" class="edge"><title>node8&#45;&gt;node14</title>
<path fill="none" stroke="black" d="M200.792,-615.723C193.054,-607.552 183.622,-597.702 175,-589 171.576,-585.544 167.933,-581.931 164.331,-578.395"/>
<polygon fill="black" stroke="black" points="166.677,-575.794 157.075,-571.316 161.789,-580.805 166.677,-575.794"/>
<text text-anchor="middle" x="186" y="-591.6" font-family="Times New Roman,serif" font-size="8.00" fill="#d3d3d3">b</text>
</g>
<!-- node32 -->
<g id="node33" class="node"><title>node32</title>
<path fill="#000000" stroke="black" d="M323,-417C323,-417 293,-417 293,-417 287,-417 281,-411 281,-405 281,-405 281,-393 281,-393 281,-387 287,-381 293,-381 293,-381 323,-381 323,-381 329,-381 335,-387 335,-393 335,-393 335,-405 335,-405 335,-411 329,-417 323,-417"/>
<text text-anchor="middle" x="308" y="-397.1" font-family="Times New Roman,serif" font-size="8.00" fill="#ffffff">Minus</text>
</g>
<!-- node9&#45;&gt;node32 -->
<g id="edge34" class="edge"><title>node9&#45;&gt;node32</title>
<path fill="none" stroke="black" d="M302.519,-461.858C303.418,-451.713 304.577,-438.634 305.597,-427.117"/>
<polygon fill="black" stroke="black" points="309.088,-427.378 306.484,-417.108 302.115,-426.76 309.088,-427.378"/>
<text text-anchor="middle" x="307" y="-437.6" font-family="Times New Roman,serif" font-size="8.00" fill="#d3d3d3">b</text>
</g>
<!-- node10 -->
<g id="node11" class="node"><title>node10</title>
<path fill="none" stroke="black" d="M191.5,-806C191.5,-806 156.5,-806 156.5,-806 150.5,-806 144.5,-800 144.5,-794 144.5,-794 144.5,-782 144.5,-782 144.5,-776 150.5,-770 156.5,-770 156.5,-770 191.5,-770 191.5,-770 197.5,-770 203.5,-776 203.5,-782 203.5,-782 203.5,-794 203.5,-794 203.5,-800 197.5,-806 191.5,-806"/>
<text text-anchor="middle" x="174" y="-785.5" font-family="Times New Roman,serif" font-size="10.00" fill="#0000ff">vdouble22</text>
</g>
<!-- node11 -->
<g id="node12" class="node"><title>node11</title>
<path fill="#000000" stroke="black" d="M232,-725C232,-725 202,-725 202,-725 196,-725 190,-719 190,-713 190,-713 190,-701 190,-701 190,-695 196,-689 202,-689 202,-689 232,-689 232,-689 238,-689 244,-695 244,-701 244,-701 244,-713 244,-713 244,-719 238,-725 232,-725"/>
<text text-anchor="middle" x="217" y="-705.1" font-family="Times New Roman,serif" font-size="8.00" fill="#ffffff">Divide</text>
</g>
<!-- node10&#45;&gt;node11 -->
<g id="edge10" class="edge"><title>node10&#45;&gt;node11</title>
<path fill="none" stroke="black" d="M183.33,-769.858C189.022,-759.402 196.409,-745.83 202.813,-734.064"/>
<polygon fill="black" stroke="black" points="205.981,-735.565 207.688,-725.108 199.833,-732.218 205.981,-735.565"/>
<text text-anchor="middle" x="199" y="-745.6" font-family="Times New Roman,serif" font-size="8.00" fill="#d3d3d3">a</text>
</g>
<!-- node11&#45;&gt;node8 -->
<g id="edge12" class="edge"><title>node11&#45;&gt;node8</title>
<path fill="none" stroke="black" d="M217,-688.813C217,-680.789 217,-671.047 217,-662.069"/>
<polygon fill="black" stroke="black" points="220.5,-662.029 217,-652.029 213.5,-662.029 220.5,-662.029"/>
</g>
<!-- node12 -->
<g id="node13" class="node"><title>node12</title>
<path fill="none" stroke="none" d="M264,-806C264,-806 234,-806 234,-806 228,-806 222,-800 222,-794 222,-794 222,-782 222,-782 222,-776 228,-770 234,-770 234,-770 264,-770 264,-770 270,-770 276,-776 276,-782 276,-782 276,-794 276,-794 276,-800 270,-806 264,-806"/>
<text text-anchor="middle" x="249" y="-785.8" font-family="Times New Roman,serif" font-size="9.00">5</text>
</g>
<!-- node12&#45;&gt;node11 -->
<g id="edge11" class="edge"><title>node12&#45;&gt;node11</title>
<path fill="none" stroke="black" d="M242.056,-769.858C237.863,-759.506 232.432,-746.099 227.699,-734.414"/>
<polygon fill="black" stroke="black" points="230.928,-733.063 223.93,-725.108 224.44,-735.691 230.928,-733.063"/>
<text text-anchor="middle" x="236" y="-745.6" font-family="Times New Roman,serif" font-size="8.00" fill="#d3d3d3">b</text>
</g>
<!-- node13 -->
<g id="node14" class="node"><title>node13</title>
<path fill="none" stroke="none" d="M85,-652C85,-652 55,-652 55,-652 49,-652 43,-646 43,-640 43,-640 43,-628 43,-628 43,-622 49,-616 55,-616 55,-616 85,-616 85,-616 91,-616 97,-622 97,-628 97,-628 97,-640 97,-640 97,-646 91,-652 85,-652"/>
<text text-anchor="middle" x="70" y="-631.5" font-family="Times New Roman,serif" font-size="10.00" fill="#0000ff">x[T]</text>
</g>
<!-- node13&#45;&gt;node14 -->
<g id="edge13" class="edge"><title>node13&#45;&gt;node14</title>
<path fill="none" stroke="black" d="M84.972,-615.858C94.4659,-604.988 106.902,-590.75 117.449,-578.674"/>
<polygon fill="black" stroke="black" points="120.115,-580.942 124.057,-571.108 114.843,-576.338 120.115,-580.942"/>
<text text-anchor="middle" x="109" y="-591.6" font-family="Times New Roman,serif" font-size="8.00" fill="#d3d3d3">a</text>
</g>
<!-- node15 -->
<g id="node16" class="node"><title>node15</title>
<path fill="none" stroke="black" d="M163,-498C163,-498 115,-498 115,-498 109,-498 103,-492 103,-486 103,-486 103,-474 103,-474 103,-468 109,-462 115,-462 115,-462 163,-462 163,-462 169,-462 175,-468 175,-474 175,-474 175,-486 175,-486 175,-492 169,-498 163,-498"/>
<text text-anchor="middle" x="139" y="-477.5" font-family="Times New Roman,serif" font-size="10.00" fill="#0000ff">vdouble[]3[T]</text>
</g>
<!-- node14&#45;&gt;node15 -->
<g id="edge15" class="edge"><title>node14&#45;&gt;node15</title>
<path fill="none" stroke="black" d="M139,-534.813C139,-526.789 139,-517.047 139,-508.069"/>
<polygon fill="black" stroke="black" points="142.5,-508.029 139,-498.029 135.5,-508.029 142.5,-508.029"/>
</g>
<!-- node15&#45;&gt;node18 -->
<g id="edge19" class="edge"><title>node15&#45;&gt;node18</title>
<path fill="none" stroke="black" d="M155.925,-461.858C166.759,-450.885 180.983,-436.479 192.978,-424.33"/>
<polygon fill="black" stroke="black" points="195.573,-426.683 200.108,-417.108 190.592,-421.765 195.573,-426.683"/>
<text text-anchor="middle" x="183" y="-437.6" font-family="Times New Roman,serif" font-size="8.00" fill="#d3d3d3">b</text>
</g>
<!-- node16 -->
<g id="node17" class="node"><title>node16</title>
<path fill="none" stroke="none" d="M189,-960C189,-960 159,-960 159,-960 153,-960 147,-954 147,-948 147,-948 147,-936 147,-936 147,-930 153,-924 159,-924 159,-924 189,-924 189,-924 195,-924 201,-930 201,-936 201,-936 201,-948 201,-948 201,-954 195,-960 189,-960"/>
<text text-anchor="middle" x="174" y="-939.5" font-family="Times New Roman,serif" font-size="10.00" fill="#0000ff">x</text>
</g>
<!-- node17 -->
<g id="node18" class="node"><title>node17</title>
<path fill="#000000" stroke="black" d="M189,-879C189,-879 159,-879 159,-879 153,-879 147,-873 147,-867 147,-867 147,-855 147,-855 147,-849 153,-843 159,-843 159,-843 189,-843 189,-843 195,-843 201,-849 201,-855 201,-855 201,-867 201,-867 201,-873 195,-879 189,-879"/>
<text text-anchor="middle" x="174" y="-859.1" font-family="Times New Roman,serif" font-size="8.00" fill="#ffffff">Sum</text>
</g>
<!-- node16&#45;&gt;node17 -->
<g id="edge16" class="edge"><title>node16&#45;&gt;node17</title>
<path fill="none" stroke="black" d="M174,-923.858C174,-913.713 174,-900.634 174,-889.117"/>
<polygon fill="black" stroke="black" points="177.5,-889.108 174,-879.108 170.5,-889.108 177.5,-889.108"/>
<text text-anchor="middle" x="183.5" y="-899.6" font-family="Times New Roman,serif" font-size="8.00" fill="#d3d3d3">array</text>
</g>
<!-- node17&#45;&gt;node10 -->
<g id="edge17" class="edge"><title>node17&#45;&gt;node10</title>
<path fill="none" stroke="black" d="M174,-842.813C174,-834.789 174,-825.047 174,-816.069"/>
<polygon fill="black" stroke="black" points="177.5,-816.029 174,-806.029 170.5,-816.029 177.5,-816.029"/>
</g>
<!-- node19 -->
<g id="node20" class="node"><title>node19</title>
<path fill="none" stroke="black" d="M250.5,-344C250.5,-344 183.5,-344 183.5,-344 177.5,-344 171.5,-338 171.5,-332 171.5,-332 171.5,-320 171.5,-320 171.5,-314 177.5,-308 183.5,-308 183.5,-308 250.5,-308 250.5,-308 256.5,-308 262.5,-314 262.5,-320 262.5,-320 262.5,-332 262.5,-332 262.5,-338 256.5,-344 250.5,-344"/>
<text text-anchor="middle" x="217" y="-323.5" font-family="Times New Roman,serif" font-size="10.00" fill="#0000ff">vdouble[][]0[N][T]</text>
</g>
<!-- node18&#45;&gt;node19 -->
<g id="edge20" class="edge"><title>node18&#45;&gt;node19</title>
<path fill="none" stroke="black" d="M217,-380.813C217,-372.789 217,-363.047 217,-354.069"/>
<polygon fill="black" stroke="black" points="220.5,-354.029 217,-344.029 213.5,-354.029 220.5,-354.029"/>
</g>
<!-- node21 -->
<g id="node22" class="node"><title>node21</title>
<path fill="#000000" stroke="black" d="M384,-263C384,-263 354,-263 354,-263 348,-263 342,-257 342,-251 342,-251 342,-239 342,-239 342,-233 348,-227 354,-227 354,-227 384,-227 384,-227 390,-227 396,-233 396,-239 396,-239 396,-251 396,-251 396,-257 390,-263 384,-263"/>
<text text-anchor="middle" x="369" y="-243.1" font-family="Times New Roman,serif" font-size="8.00" fill="#ffffff">Plus</text>
</g>
<!-- node19&#45;&gt;node21 -->
<g id="edge22" class="edge"><title>node19&#45;&gt;node21</title>
<path fill="none" stroke="black" d="M249.982,-307.858C274.292,-295.223 307.359,-278.037 332.47,-264.986"/>
<polygon fill="black" stroke="black" points="334.41,-267.922 341.669,-260.205 331.182,-261.711 334.41,-267.922"/>
<text text-anchor="middle" x="300" y="-283.6" font-family="Times New Roman,serif" font-size="8.00" fill="#d3d3d3">b</text>
</g>
<!-- node20 -->
<g id="node21" class="node"><title>node20</title>
<path fill="none" stroke="black" d="M395,-344C395,-344 365,-344 365,-344 359,-344 353,-338 353,-332 353,-332 353,-320 353,-320 353,-314 359,-308 365,-308 365,-308 395,-308 395,-308 401,-308 407,-314 407,-320 407,-320 407,-332 407,-332 407,-338 401,-344 395,-344"/>
<text text-anchor="middle" x="380" y="-323.5" font-family="Times New Roman,serif" font-size="10.00" fill="#0000ff">alpha[N]</text>
</g>
<!-- node20&#45;&gt;node21 -->
<g id="edge21" class="edge"><title>node20&#45;&gt;node21</title>
<path fill="none" stroke="black" d="M377.613,-307.858C376.201,-297.713 374.379,-284.634 372.776,-273.117"/>
<polygon fill="black" stroke="black" points="376.228,-272.53 371.382,-263.108 369.295,-273.496 376.228,-272.53"/>
<text text-anchor="middle" x="377" y="-283.6" font-family="Times New Roman,serif" font-size="8.00" fill="#d3d3d3">a</text>
</g>
<!-- node22 -->
<g id="node23" class="node"><title>node22</title>
<path fill="none" stroke="black" d="M408.5,-190C408.5,-190 341.5,-190 341.5,-190 335.5,-190 329.5,-184 329.5,-178 329.5,-178 329.5,-166 329.5,-166 329.5,-160 335.5,-154 341.5,-154 341.5,-154 408.5,-154 408.5,-154 414.5,-154 420.5,-160 420.5,-166 420.5,-166 420.5,-178 420.5,-178 420.5,-184 414.5,-190 408.5,-190"/>
<text text-anchor="middle" x="375" y="-169.5" font-family="Times New Roman,serif" font-size="10.00" fill="#0000ff">vdouble[][]1[N][T]</text>
</g>
<!-- node21&#45;&gt;node22 -->
<g id="edge23" class="edge"><title>node21&#45;&gt;node22</title>
<path fill="none" stroke="black" d="M370.452,-226.813C371.13,-218.789 371.954,-209.047 372.712,-200.069"/>
<polygon fill="black" stroke="black" points="376.206,-200.288 373.561,-190.029 369.231,-199.699 376.206,-200.288"/>
</g>
<!-- node34 -->
<g id="node35" class="node"><title>node34</title>
<path fill="#000000" stroke="black" d="M442,-109C442,-109 412,-109 412,-109 406,-109 400,-103 400,-97 400,-97 400,-85 400,-85 400,-79 406,-73 412,-73 412,-73 442,-73 442,-73 448,-73 454,-79 454,-85 454,-85 454,-97 454,-97 454,-103 448,-109 442,-109"/>
<text text-anchor="middle" x="427" y="-89.1" font-family="Times New Roman,serif" font-size="8.00" fill="#ffffff">Gaussian</text>
</g>
<!-- node22&#45;&gt;node34 -->
<g id="edge36" class="edge"><title>node22&#45;&gt;node34</title>
<path fill="none" stroke="black" d="M386.283,-153.858C393.234,-143.299 402.276,-129.561 410.074,-117.715"/>
<polygon fill="black" stroke="black" points="413.164,-119.386 415.739,-109.108 407.317,-115.537 413.164,-119.386"/>
<text text-anchor="middle" x="412.5" y="-129.6" font-family="Times New Roman,serif" font-size="8.00" fill="#d3d3d3">mean</text>
</g>
<!-- node23 -->
<g id="node24" class="node"><title>node23</title>
<path fill="none" stroke="black" d="M394,-498C394,-498 364,-498 364,-498 358,-498 352,-492 352,-486 352,-486 352,-474 352,-474 352,-468 358,-462 364,-462 364,-462 394,-462 394,-462 400,-462 406,-468 406,-474 406,-474 406,-486 406,-486 406,-492 400,-498 394,-498"/>
<text text-anchor="middle" x="379" y="-477.5" font-family="Times New Roman,serif" font-size="10.00" fill="#0000ff">alphaC</text>
</g>
<!-- node24 -->
<g id="node25" class="node"><title>node24</title>
<path fill="#000000" stroke="black" d="M395,-417C395,-417 365,-417 365,-417 359,-417 353,-411 353,-405 353,-405 353,-393 353,-393 353,-387 359,-381 365,-381 365,-381 395,-381 395,-381 401,-381 407,-387 407,-393 407,-393 407,-405 407,-405 407,-411 401,-417 395,-417"/>
<text text-anchor="middle" x="380" y="-397.1" font-family="Times New Roman,serif" font-size="8.00" fill="#ffffff">Gaussian</text>
</g>
<!-- node23&#45;&gt;node24 -->
<g id="edge24" class="edge"><title>node23&#45;&gt;node24</title>
<path fill="none" stroke="black" d="M379.217,-461.858C379.345,-451.713 379.511,-438.634 379.657,-427.117"/>
<polygon fill="black" stroke="black" points="383.156,-427.152 379.783,-417.108 376.157,-427.063 383.156,-427.152"/>
<text text-anchor="middle" x="389.5" y="-437.6" font-family="Times New Roman,serif" font-size="8.00" fill="#d3d3d3">mean</text>
</g>
<!-- node23&#45;&gt;node32 -->
<g id="edge33" class="edge"><title>node23&#45;&gt;node32</title>
<path fill="none" stroke="black" d="M363.594,-461.858C353.825,-450.988 341.029,-436.75 330.176,-424.674"/>
<polygon fill="black" stroke="black" points="332.664,-422.206 323.376,-417.108 327.457,-426.886 332.664,-422.206"/>
<text text-anchor="middle" x="348" y="-437.6" font-family="Times New Roman,serif" font-size="8.00" fill="#d3d3d3">a</text>
</g>
<!-- node24&#45;&gt;node20 -->
<g id="edge26" class="edge"><title>node24&#45;&gt;node20</title>
<path fill="none" stroke="black" d="M380,-380.813C380,-372.789 380,-363.047 380,-354.069"/>
<polygon fill="black" stroke="black" points="383.5,-354.029 380,-344.029 376.5,-354.029 383.5,-354.029"/>
</g>
<!-- node25 -->
<g id="node26" class="node"><title>node25</title>
<path fill="none" stroke="black" d="M478,-498C478,-498 448,-498 448,-498 442,-498 436,-492 436,-486 436,-486 436,-474 436,-474 436,-468 442,-462 448,-462 448,-462 478,-462 478,-462 484,-462 490,-468 490,-474 490,-474 490,-486 490,-486 490,-492 484,-498 478,-498"/>
<text text-anchor="middle" x="463" y="-477.5" font-family="Times New Roman,serif" font-size="10.00" fill="#0000ff">alphaTau</text>
</g>
<!-- node25&#45;&gt;node24 -->
<g id="edge25" class="edge"><title>node25&#45;&gt;node24</title>
<path fill="none" stroke="black" d="M444.99,-461.858C433.461,-450.885 418.326,-436.479 405.562,-424.33"/>
<polygon fill="black" stroke="black" points="407.631,-421.468 397.975,-417.108 402.805,-426.538 407.631,-421.468"/>
<text text-anchor="middle" x="440" y="-437.6" font-family="Times New Roman,serif" font-size="8.00" fill="#d3d3d3">precision</text>
</g>
<!-- node26 -->
<g id="node27" class="node"><title>node26</title>
<path fill="none" stroke="none" d="M523,-652C523,-652 493,-652 493,-652 487,-652 481,-646 481,-640 481,-640 481,-628 481,-628 481,-622 487,-616 493,-616 493,-616 523,-616 523,-616 529,-616 535,-622 535,-628 535,-628 535,-640 535,-640 535,-646 529,-652 523,-652"/>
<text text-anchor="middle" x="508" y="-631.8" font-family="Times New Roman,serif" font-size="9.00">0.001</text>
</g>
<!-- node27 -->
<g id="node28" class="node"><title>node27</title>
<path fill="#000000" stroke="black" d="M552,-571C552,-571 464,-571 464,-571 458,-571 452,-565 452,-559 452,-559 452,-547 452,-547 452,-541 458,-535 464,-535 464,-535 552,-535 552,-535 558,-535 564,-541 564,-547 564,-547 564,-559 564,-559 564,-565 558,-571 552,-571"/>
<text text-anchor="middle" x="508" y="-551.1" font-family="Times New Roman,serif" font-size="8.00" fill="#ffffff">GammaFromShapeAndRate</text>
</g>
<!-- node26&#45;&gt;node27 -->
<g id="edge27" class="edge"><title>node26&#45;&gt;node27</title>
<path fill="none" stroke="black" d="M508,-615.858C508,-605.713 508,-592.634 508,-581.117"/>
<polygon fill="black" stroke="black" points="511.5,-581.108 508,-571.108 504.5,-581.108 511.5,-581.108"/>
<text text-anchor="middle" x="518" y="-591.6" font-family="Times New Roman,serif" font-size="8.00" fill="#d3d3d3">shape</text>
</g>
<!-- node27&#45;&gt;node25 -->
<g id="edge29" class="edge"><title>node27&#45;&gt;node25</title>
<path fill="none" stroke="black" d="M497.107,-534.813C491.745,-526.353 485.173,-515.984 479.233,-506.612"/>
<polygon fill="black" stroke="black" points="482.103,-504.602 473.793,-498.029 476.19,-508.349 482.103,-504.602"/>
</g>
<!-- node28 -->
<g id="node29" class="node"><title>node28</title>
<path fill="none" stroke="none" d="M595,-652C595,-652 565,-652 565,-652 559,-652 553,-646 553,-640 553,-640 553,-628 553,-628 553,-622 559,-616 565,-616 565,-616 595,-616 595,-616 601,-616 607,-622 607,-628 607,-628 607,-640 607,-640 607,-646 601,-652 595,-652"/>
<text text-anchor="middle" x="580" y="-631.8" font-family="Times New Roman,serif" font-size="9.00">0.001</text>
</g>
<!-- node28&#45;&gt;node27 -->
<g id="edge28" class="edge"><title>node28&#45;&gt;node27</title>
<path fill="none" stroke="black" d="M564.377,-615.858C554.47,-604.988 541.494,-590.75 530.488,-578.674"/>
<polygon fill="black" stroke="black" points="532.915,-576.142 523.592,-571.108 527.742,-580.857 532.915,-576.142"/>
<text text-anchor="middle" x="553" y="-591.6" font-family="Times New Roman,serif" font-size="8.00" fill="#d3d3d3">rate</text>
</g>
<!-- node29 -->
<g id="node30" class="node"><title>node29</title>
<path fill="none" stroke="none" d="M379,-652C379,-652 349,-652 349,-652 343,-652 337,-646 337,-640 337,-640 337,-628 337,-628 337,-622 343,-616 349,-616 349,-616 379,-616 379,-616 385,-616 391,-622 391,-628 391,-628 391,-640 391,-640 391,-646 385,-652 379,-652"/>
<text text-anchor="middle" x="364" y="-631.8" font-family="Times New Roman,serif" font-size="9.00">0</text>
</g>
<!-- node30 -->
<g id="node31" class="node"><title>node30</title>
<path fill="#000000" stroke="black" d="M394,-571C394,-571 364,-571 364,-571 358,-571 352,-565 352,-559 352,-559 352,-547 352,-547 352,-541 358,-535 364,-535 364,-535 394,-535 394,-535 400,-535 406,-541 406,-547 406,-547 406,-559 406,-559 406,-565 400,-571 394,-571"/>
<text text-anchor="middle" x="379" y="-551.1" font-family="Times New Roman,serif" font-size="8.00" fill="#ffffff">Gaussian</text>
</g>
<!-- node29&#45;&gt;node30 -->
<g id="edge30" class="edge"><title>node29&#45;&gt;node30</title>
<path fill="none" stroke="black" d="M367.255,-615.858C369.181,-605.713 371.665,-592.634 373.851,-581.117"/>
<polygon fill="black" stroke="black" points="377.325,-581.586 375.752,-571.108 370.448,-580.28 377.325,-581.586"/>
<text text-anchor="middle" x="381.5" y="-591.6" font-family="Times New Roman,serif" font-size="8.00" fill="#d3d3d3">mean</text>
</g>
<!-- node30&#45;&gt;node23 -->
<g id="edge32" class="edge"><title>node30&#45;&gt;node23</title>
<path fill="none" stroke="black" d="M379,-534.813C379,-526.789 379,-517.047 379,-508.069"/>
<polygon fill="black" stroke="black" points="382.5,-508.029 379,-498.029 375.5,-508.029 382.5,-508.029"/>
</g>
<!-- node31 -->
<g id="node32" class="node"><title>node31</title>
<path fill="none" stroke="none" d="M451,-652C451,-652 421,-652 421,-652 415,-652 409,-646 409,-640 409,-640 409,-628 409,-628 409,-622 415,-616 421,-616 421,-616 451,-616 451,-616 457,-616 463,-622 463,-628 463,-628 463,-640 463,-640 463,-646 457,-652 451,-652"/>
<text text-anchor="middle" x="436" y="-631.8" font-family="Times New Roman,serif" font-size="9.00">0.0001</text>
</g>
<!-- node31&#45;&gt;node30 -->
<g id="edge31" class="edge"><title>node31&#45;&gt;node30</title>
<path fill="none" stroke="black" d="M423.632,-615.858C415.938,-605.195 405.906,-591.291 397.303,-579.367"/>
<polygon fill="black" stroke="black" points="400.034,-577.17 391.344,-571.108 394.357,-581.266 400.034,-577.17"/>
<text text-anchor="middle" x="426" y="-591.6" font-family="Times New Roman,serif" font-size="8.00" fill="#d3d3d3">precision</text>
</g>
<!-- node33 -->
<g id="node34" class="node"><title>node33</title>
<path fill="none" stroke="black" d="M323,-344C323,-344 293,-344 293,-344 287,-344 281,-338 281,-332 281,-332 281,-320 281,-320 281,-314 287,-308 293,-308 293,-308 323,-308 323,-308 329,-308 335,-314 335,-320 335,-320 335,-332 335,-332 335,-338 329,-344 323,-344"/>
<text text-anchor="middle" x="308" y="-323.5" font-family="Times New Roman,serif" font-size="10.00" fill="#0000ff">alpha0</text>
</g>
<!-- node32&#45;&gt;node33 -->
<g id="edge35" class="edge"><title>node32&#45;&gt;node33</title>
<path fill="none" stroke="black" d="M308,-380.813C308,-372.789 308,-363.047 308,-354.069"/>
<polygon fill="black" stroke="black" points="311.5,-354.029 308,-344.029 304.5,-354.029 311.5,-354.029"/>
</g>
<!-- node36 -->
<g id="node37" class="node"><title>node36</title>
<path fill="none" stroke="none" d="M442,-36C442,-36 412,-36 412,-36 406,-36 400,-30 400,-24 400,-24 400,-12 400,-12 400,-6 406,-0 412,-0 412,-0 442,-0 442,-0 448,-0 454,-6 454,-12 454,-12 454,-24 454,-24 454,-30 448,-36 442,-36"/>
<text text-anchor="middle" x="427" y="-15.5" font-family="Times New Roman,serif" font-size="10.00" fill="#0000ff">y[N,T]</text>
</g>
<!-- node34&#45;&gt;node36 -->
<g id="edge38" class="edge"><title>node34&#45;&gt;node36</title>
<path fill="none" stroke="black" d="M427,-72.8129C427,-64.7895 427,-55.0475 427,-46.0691"/>
<polygon fill="black" stroke="black" points="430.5,-46.0288 427,-36.0288 423.5,-46.0289 430.5,-46.0288"/>
</g>
<!-- node35 -->
<g id="node36" class="node"><title>node35</title>
<path fill="none" stroke="black" d="M482,-190C482,-190 452,-190 452,-190 446,-190 440,-184 440,-178 440,-178 440,-166 440,-166 440,-160 446,-154 452,-154 452,-154 482,-154 482,-154 488,-154 494,-160 494,-166 494,-166 494,-178 494,-178 494,-184 488,-190 482,-190"/>
<text text-anchor="middle" x="467" y="-169.5" font-family="Times New Roman,serif" font-size="10.00" fill="#0000ff">tauC</text>
</g>
<!-- node35&#45;&gt;node34 -->
<g id="edge37" class="edge"><title>node35&#45;&gt;node34</title>
<path fill="none" stroke="black" d="M458.321,-153.858C453.027,-143.402 446.154,-129.83 440.197,-118.064"/>
<polygon fill="black" stroke="black" points="443.302,-116.449 435.662,-109.108 437.057,-119.611 443.302,-116.449"/>
<text text-anchor="middle" x="465" y="-129.6" font-family="Times New Roman,serif" font-size="8.00" fill="#d3d3d3">precision</text>
</g>
<!-- node37 -->
<g id="node38" class="node"><title>node37</title>
<path fill="none" stroke="none" d="M481,-344C481,-344 451,-344 451,-344 445,-344 439,-338 439,-332 439,-332 439,-320 439,-320 439,-314 445,-308 451,-308 451,-308 481,-308 481,-308 487,-308 493,-314 493,-320 493,-320 493,-332 493,-332 493,-338 487,-344 481,-344"/>
<text text-anchor="middle" x="466" y="-323.8" font-family="Times New Roman,serif" font-size="9.00">0.001</text>
</g>
<!-- node38 -->
<g id="node39" class="node"><title>node38</title>
<path fill="#000000" stroke="black" d="M514,-263C514,-263 426,-263 426,-263 420,-263 414,-257 414,-251 414,-251 414,-239 414,-239 414,-233 420,-227 426,-227 426,-227 514,-227 514,-227 520,-227 526,-233 526,-239 526,-239 526,-251 526,-251 526,-257 520,-263 514,-263"/>
<text text-anchor="middle" x="470" y="-243.1" font-family="Times New Roman,serif" font-size="8.00" fill="#ffffff">GammaFromShapeAndRate</text>
</g>
<!-- node37&#45;&gt;node38 -->
<g id="edge39" class="edge"><title>node37&#45;&gt;node38</title>
<path fill="none" stroke="black" d="M466.868,-307.858C467.382,-297.713 468.044,-284.634 468.627,-273.117"/>
<polygon fill="black" stroke="black" points="472.123,-273.273 469.134,-263.108 465.132,-272.919 472.123,-273.273"/>
<text text-anchor="middle" x="479" y="-283.6" font-family="Times New Roman,serif" font-size="8.00" fill="#d3d3d3">shape</text>
</g>
<!-- node38&#45;&gt;node35 -->
<g id="edge41" class="edge"><title>node38&#45;&gt;node35</title>
<path fill="none" stroke="black" d="M469.274,-226.813C468.935,-218.789 468.523,-209.047 468.144,-200.069"/>
<polygon fill="black" stroke="black" points="471.639,-199.872 467.72,-190.029 464.645,-200.168 471.639,-199.872"/>
</g>
<!-- node39 -->
<g id="node40" class="node"><title>node39</title>
<path fill="none" stroke="none" d="M553,-344C553,-344 523,-344 523,-344 517,-344 511,-338 511,-332 511,-332 511,-320 511,-320 511,-314 517,-308 523,-308 523,-308 553,-308 553,-308 559,-308 565,-314 565,-320 565,-320 565,-332 565,-332 565,-338 559,-344 553,-344"/>
<text text-anchor="middle" x="538" y="-323.8" font-family="Times New Roman,serif" font-size="9.00">0.001</text>
</g>
<!-- node39&#45;&gt;node38 -->
<g id="edge40" class="edge"><title>node39&#45;&gt;node38</title>
<path fill="none" stroke="black" d="M523.245,-307.858C513.978,-297.092 501.866,-283.021 491.536,-271.02"/>
<polygon fill="black" stroke="black" points="493.903,-268.404 484.726,-263.108 488.597,-272.971 493.903,-268.404"/>
<text text-anchor="middle" x="513" y="-283.6" font-family="Times New Roman,serif" font-size="8.00" fill="#d3d3d3">rate</text>
</g>
<!-- node40 -->
<g id="node41" class="node"><title>node40</title>
<path fill="none" stroke="none" d="M42,-806C42,-806 12,-806 12,-806 6,-806 0,-800 0,-794 0,-794 0,-782 0,-782 0,-776 6,-770 12,-770 12,-770 42,-770 42,-770 48,-770 54,-776 54,-782 54,-782 54,-794 54,-794 54,-800 48,-806 42,-806"/>
<text text-anchor="middle" x="27" y="-785.8" font-family="Times New Roman,serif" font-size="9.00">0.001</text>
</g>
<!-- node41 -->
<g id="node42" class="node"><title>node41</title>
<path fill="#000000" stroke="black" d="M143,-725C143,-725 55,-725 55,-725 49,-725 43,-719 43,-713 43,-713 43,-701 43,-701 43,-695 49,-689 55,-689 55,-689 143,-689 143,-689 149,-689 155,-695 155,-701 155,-701 155,-713 155,-713 155,-719 149,-725 143,-725"/>
<text text-anchor="middle" x="99" y="-705.1" font-family="Times New Roman,serif" font-size="8.00" fill="#ffffff">GammaFromShapeAndRate</text>
</g>
<!-- node40&#45;&gt;node41 -->
<g id="edge42" class="edge"><title>node40&#45;&gt;node41</title>
<path fill="none" stroke="black" d="M42.6229,-769.858C52.5297,-758.988 65.5062,-744.75 76.5119,-732.674"/>
<polygon fill="black" stroke="black" points="79.2583,-734.857 83.4076,-725.108 74.0847,-730.142 79.2583,-734.857"/>
<text text-anchor="middle" x="76" y="-745.6" font-family="Times New Roman,serif" font-size="8.00" fill="#d3d3d3">shape</text>
</g>
<!-- node41&#45;&gt;node5 -->
<g id="edge44" class="edge"><title>node41&#45;&gt;node5</title>
<path fill="none" stroke="black" d="M109.409,-688.813C114.532,-680.353 120.813,-669.984 126.488,-660.612"/>
<polygon fill="black" stroke="black" points="129.5,-662.396 131.687,-652.029 123.513,-658.769 129.5,-662.396"/>
</g>
<!-- node42 -->
<g id="node43" class="node"><title>node42</title>
<path fill="none" stroke="none" d="M114,-806C114,-806 84,-806 84,-806 78,-806 72,-800 72,-794 72,-794 72,-782 72,-782 72,-776 78,-770 84,-770 84,-770 114,-770 114,-770 120,-770 126,-776 126,-782 126,-782 126,-794 126,-794 126,-800 120,-806 114,-806"/>
<text text-anchor="middle" x="99" y="-785.8" font-family="Times New Roman,serif" font-size="9.00">0.001</text>
</g>
<!-- node42&#45;&gt;node41 -->
<g id="edge43" class="edge"><title>node42&#45;&gt;node41</title>
<path fill="none" stroke="black" d="M99,-769.858C99,-759.713 99,-746.634 99,-735.117"/>
<polygon fill="black" stroke="black" points="102.5,-735.108 99,-725.108 95.5001,-735.108 102.5,-735.108"/>
<text text-anchor="middle" x="106" y="-745.6" font-family="Times New Roman,serif" font-size="8.00" fill="#d3d3d3">rate</text>
</g>
</g>
</svg>
